<svg xmlns="http://www.w3.org/2000/svg" xmlns:xlink="http://www.w3.org/1999/xlink" version="1.1" x="0px" y="0px" viewBox="0 0 100 125" enable-background="new 0 0 100 100" xml:space="preserve"><path display="none" d="M55.01,56.542v2.208c0,0,2.043,0.293,2.043,1.584s-2.256,0.838-2.256,0.838l-0.703-0.255  c0,0-0.256-16.312,0.535-17.919c0.053-0.107,0.111-0.164,0.174-0.164h-4.693h-4.693c0.062,0,0.12,0.057,0.173,0.164  c0.792,1.607,0.536,17.919,0.536,17.919l-0.703,0.255c0,0-2.255,0.453-2.255-0.838s2.042-1.584,2.042-1.584v-2.208  c0,0-6.302-0.948-6.302,3.146s4.781,5.219,6.469,5.219s4.734,0,4.734,0s3.047,0,4.734,0s6.469-1.125,6.469-5.219  S55.01,56.542,55.01,56.542z"/><path d="M63.138,74.028c-0.362-0.032-0.722-0.038-1.077-0.029c-1.128-0.659-2.443-1.097-3.869-1.226  c-0.53-0.047-1.052-0.045-1.563-0.008c-0.353-0.562-0.787-1.08-1.282-1.548c2.207-0.124,7.329-1.544,7.329-6.152  c0-4.835-8.425-2.94-8.425-2.94l0.042,2.042c0,0,3.352,0.137,3.352,1.662c0,1.524-2.664,0.989-2.664,0.989l-0.83-0.301  c0,0-0.474-8.675-0.289-11.308s1.406-5.71,1.623-8.279c-1.626,0.638-3.385,0.906-5.21,0.684c-1.919-0.235-3.698-0.979-5.273-2.088  c-0.485,0.606-1.022,1.142-1.583,1.641c0.204,2.562,1.403,5.219,1.594,8.043s-0.273,11.308-0.273,11.308l-0.831,0.301  c0,0-2.664,0.535-2.664-0.989c0-1.525,3.126-1.585,3.126-1.585l0.214-2.161c0,0-8.373-1.853-8.373,2.982  c0,4.215,4.289,5.765,6.71,6.093c-0.695,0.67-1.271,1.443-1.652,2.317c-0.548-0.151-1.12-0.259-1.712-0.312  c-2.415-0.218-4.671,0.488-6.347,1.787c-3.875,0.4-6.999,3.154-7.324,6.763c-0.376,4.165,3.121,7.885,7.807,8.308  c2.415,0.219,4.671-0.486,6.346-1.786c0.575-0.061,1.132-0.172,1.667-0.33c1.416,1.597,3.521,2.709,5.953,2.929  c2.257,0.203,4.375-0.4,6.01-1.541c1.366,1.193,3.177,2.001,5.212,2.185c3.204,0.288,6.136-1.041,7.79-3.241  c2.362-1.156,4.039-3.308,4.272-5.898C71.32,78.172,67.825,74.452,63.138,74.028z"/><path d="M83.371,25.755c0-2.825-1.129-5.408-2.999-7.411c-2.263-2.624-5.749-4.333-9.688-4.425  c-1.109-5.612-6.274-9.861-12.487-9.861c-4.637,0-8.683,2.373-10.903,5.906c-2.153-1.594-4.849-2.551-7.787-2.551  c-4.25,0-8.005,1.994-10.312,5.047C20.43,12.837,13.46,18.753,13.46,26.017c0,5.626,4.178,10.454,10.133,12.52  c1.094,4.842,5.649,8.729,11.431,9.25c3.981,0.358,7.677-0.958,10.229-3.301c1.551,0.805,3.305,1.345,5.193,1.515  c2.265,0.204,4.436-0.14,6.357-0.899c1.938,1.461,4.366,2.441,7.062,2.686c6.992,0.629,13.118-3.896,13.678-10.112  c0.068-0.756,0.048-1.503-0.047-2.234C81.024,33.397,83.371,29.828,83.371,25.755z M34.96,36.111c0,0-3.579-3.86-1.752-7.824  c0,0,0.099,5.239,2.288,7.239c2.187,1.998,7.461,1.667,7.461,1.667C39.175,39.371,34.96,36.111,34.96,36.111z M62.353,20.367  c0,0-0.095-4.071-1.802-5.617c-1.706-1.545-5.803-1.27-5.803-1.27c2.932-1.704,6.217,0.814,6.217,0.814S63.758,17.281,62.353,20.367  z M70.564,35.132c0,0-3,2.781-6.079,1.361c0,0,4.071-0.077,5.624-1.777c1.552-1.699,1.295-5.797,1.295-5.797  C73.097,31.858,70.564,35.132,70.564,35.132z"/><text x="0" y="115" fill="#000000" font-size="5px" font-weight="bold" font-family="'Helvetica Neue', Helvetica, Arial-Unicode, Arial, Sans-serif">Created by Julien Meysmans</text><text x="0" y="120" fill="#000000" font-size="5px" font-weight="bold" font-family="'Helvetica Neue', Helvetica, Arial-Unicode, Arial, Sans-serif">from the Noun Project</text></svg>