<svg xmlns="http://www.w3.org/2000/svg" data-name="Layer 1" viewBox="0 0 100 125" x="0px" y="0px"><title>all</title><g><g><g data-name="Zoom In"><g data-name="Calendar"><g><g><g><g><path d="M74.53,63.21L63.21,74.53,50,61.32,36.79,74.53,25.47,63.21,38.68,50,25.47,36.79,36.79,25.47,50,38.68,63.21,25.47,74.53,36.79,61.32,50Z"/><polygon points="63.21 25.47 50 38.68 36.79 25.47 25.47 36.79 38.68 50 25.47 63.21 36.79 74.53 50 61.32 63.21 74.53 74.53 63.21 61.32 50 74.53 36.79 63.21 25.47"/><path d="M85.36,14.65a50,50,0,1,0,0,70.71A49.84,49.84,0,0,0,85.36,14.65ZM79.83,79.83A42.19,42.19,0,0,1,20.17,20.17a42.19,42.19,0,0,1,59.66,0h0A42.19,42.19,0,0,1,79.83,79.83Z"/></g></g></g></g></g></g></g></g></svg>
