<svg xmlns="http://www.w3.org/2000/svg" xmlns:xlink="http://www.w3.org/1999/xlink" version="1.1" x="0px" y="0px" viewBox="-5 30 101 34" enable-background="new 0 0 90 90" xml:space="preserve"><path fill-rule="evenodd" clip-rule="evenodd" d="M85.233,43.716c-0.528-0.206-1.041-0.466-1.582-0.639  c-1.801-0.578-3.628-1.063-5.496-1.379c-0.5-0.084-1-0.169-1.503-0.226c-0.735-0.083-1.474-0.143-2.211-0.207  c-0.558-0.049-1.116-0.122-1.676-0.129c-1.341-0.017-2.683-0.001-4.024,0.003c-0.704,0.002-1.408,0.006-2.112,0.012  c-0.662,0.005-1.324,0.014-1.986,0.019c-0.39,0.003-0.778,0-1.157,0c-0.042-0.029-0.083-0.065-0.131-0.089  c-0.245-0.12-1.461-3.335-1.526-3.691c-0.051-0.274-0.128-0.546-0.216-0.811c-0.052-0.156-0.167-0.234-0.359-0.232  c-0.618,0.008-1.237-0.013-1.856-0.016c-1.502-0.009-3.006-0.017-4.509-0.024v-3.486h-0.226v3.485  c-0.137-0.001-0.274-0.001-0.411-0.002V33.75h-0.649v-5.002h-0.451v5.002H52.5v2.53c-0.686,0.017-1.371,0.04-2.057,0.06  c-0.608,0.018-1.219,0.005-1.818,0.148c-0.368,0.087-0.734,0.171-0.986,0.492c-0.188,0.239-0.382,0.473-0.563,0.717  c-0.369,0.495-0.731,0.994-1.096,1.493c-0.413,0.567-0.825,1.136-1.243,1.711c0.032,0.018-18.959-0.344-24.924-0.351  c-0.619-0.001-1.208,0.099-1.792,0.295c-0.794,0.267-1.564,0.59-2.335,0.915c-0.636,0.268-1.272,0.533-1.909,0.798  c-0.387,0.162-0.772,0.327-1.162,0.482c-0.255,0.102-0.516,0.191-0.776,0.281c-0.088,0.031-0.144,0.019-0.154-0.105  c-0.025-0.334-0.07-0.666-0.106-1c-0.044-0.408-0.086-0.816-0.133-1.225c-0.032-0.275-0.063-0.55-0.111-0.822  c-0.01-0.058-0.083-0.133-0.141-0.148c-0.43-0.116-0.869-0.174-1.314-0.165c-0.389,0.008-0.779,0.023-1.167,0.054  c-0.368,0.029-0.734,0.083-1.107,0.127c-0.003,0.06-0.008,0.104-0.008,0.148c-0.009,1.234-0.02,2.468-0.021,3.702  c0,0.238-0.077,0.492,0.109,0.7c-0.495,0.229-0.976,0.452-1.474,0.682c-0.01-0.167-0.019-0.312-0.027-0.441  c-0.214,0.021-1.993,0.47-2.245,0.519c-0.158,0.03-0.192,0.073-0.193,0.242c-0.001,0.287-0.005,0.575,0.002,0.862  c0.002,0.096-0.028,0.145-0.118,0.177c-0.253,0.091-0.502,0.19-0.753,0.285c-0.117,0.044-0.279,0.057-0.338,0.141  c-0.062,0.089-0.019,0.248-0.034,0.375c-0.011,0.095,0.029,0.129,0.113,0.158c0.378,0.131,0.753,0.27,1.13,0.406  c0,0.383,0,0.751,0,1.127c0.368,0.085,2.528,0.569,2.529,0.411c0.001-0.173,0-0.346,0-0.523c0.039,0.003,0.063,0,0.083,0.007  c0.374,0.145,0.746,0.292,1.121,0.434c0.072,0.027,0.09,0.066,0.09,0.139c0.003,0.439,0.015,0.879,0.017,1.318  c0.005,0.821,0.006,1.643,0.009,2.464c0,0.061,0,0.122,0,0.182c0.191,0.023,0.359,0.049,0.528,0.063  c0.4,0.035,0.802,0.071,1.203,0.095c0.61,0.035,1.217,0.008,1.817-0.113c0.084-0.018,0.124-0.06,0.135-0.14  c0.056-0.393,0.111-0.785,0.167-1.178c0.055-0.387,0.11-0.773,0.169-1.188c0.062,0.019,0.102,0.03,0.143,0.042  c0.541,0.162,1.077,0.346,1.625,0.481c0.526,0.129,1.062,0.227,1.599,0.306c0.565,0.082,1.135,0.158,1.705,0.18  c0.82,0.031,1.641,0.014,2.461,0.014c1.687-0.001,3.374-0.006,5.061-0.006c9.007,0,18.015,0,27.022,0  c1.458,0,2.915,0.005,4.373,0.005c1.574,0.002,3.148,0.001,4.724,0.001c2.499,0,4.997,0,7.496,0  c1.046-0.001,17.676,0.362,19.414-4.1C87.277,47.858,88.521,45,85.233,43.716z"/></svg>
