<svg xmlns="http://www.w3.org/2000/svg" xmlns:xlink="http://www.w3.org/1999/xlink" version="1.1" x="0px" y="0px" viewBox="0 35 101 34" style="enable-background:new 0 0 100 100;" xml:space="preserve"><style type="text/css">
	.st0{fill:none;}
</style><rect class="st0" width="100" height="100"/><path d="M82.7,47.9H61.9l-5.1-3.8h-2.4v-3.1H50v3.1h-2.6v-5.2h-1.1v5h-3.9v4h-5.9c0,0-10.9,0.2-18.6,4c-0.7-1.8-2.5-4.2-7.2-4.2v6.5  v0.5v6.5c4.7,0,6.5-2.5,7.2-4.2c7.7,3.8,18.6,4,18.6,4h46.1c3.6,0,6.5-2.9,6.5-6.5C89.2,50.8,86.3,47.9,82.7,47.9z"/></svg>
